<svg xmlns="http://www.w3.org/2000/svg" viewBox="0 0 450 175"><defs/><g stroke="null"><path fill="#8080f2" d="M55 70l28-17a2 2 0 013 0l28 17 1 2v32l-1 2-28 17a2 2 0 01-3 0l-28-17-1-2V72l1-2"/><path fill="#4b32c3" d="M158 85l-34-59c-1-2-3-4-6-4H51c-3 0-5 2-6 4L11 84a7 7 0 000 7l34 59c1 2 3 3 6 3h67c3 0 5-1 6-3l34-59a7 7 0 000-6m-28 28l-1 2-43 25a2 2 0 01-3 0l-43-25-1-2V63a2 2 0 011-2l43-25a2 2 0 013 0l43 25 1 2v50z"/></g><path d="M187 81h12V69h12v12h13v13h-13v12h-12V94h-12V81z"/><g stroke="null"><path fill="#E44D26" d="M314 149L278 49l100-27 18 105-38 22h-44z"/><path fill="#F16529" d="M356 140l30-18-15-89-41 11 26 96z"/><path fill="#EFEFEF" d="M425 74l5 16-36 10s0 21-17 30c-18 8-31 1-31 1l-2-6 26-7 5-22-16-16-24 7-2-6s11-24 44-10c0 0 10 6 12 12l36-9zm5-1l5-2 5 16-6 2-4-16z"/><path fill="#BCBCBC" d="M432 72l3-1 5 16-6 2-2-5 3-1-3-11zm-11 3l4-1 5 16-36 10s0 19-13 27c-12 8-26 8-35 4l-1-3s24 6 36-12c8-12 7-21 7-21l36-10-3-10zm-88 6l21-6 5 5-24 7-2-6z"/><path fill="#EFEFEF" d="M259 93l4 16 36-10s11 19 30 17 27-15 27-15l-1-6-26 7-16-16 6-22 24-6-1-6s-22-16-43 13c0 0-6 11-5 17l-35 11zm-5 1l-5 1 4 17 6-2-5-16z"/><path fill="#BCBCBC" d="M252 94l-3 1 4 17 6-2-1-5h-3l-3-11zm11-3l-4 2 4 16 36-10s10 16 25 17 27-6 32-15v-3s-18 18-38 8c-12-6-17-14-17-14l-35 10-3-11zm79-39l-21 5-2 7 24-6-1-6z"/></g></svg>
